<svg xmlns="http://www.w3.org/2000/svg" xmlns:xlink="http://www.w3.org/1999/xlink" width="30" height="30" viewBox="0 0 30 30">
  <defs>
    <clipPath id="clip-contacts">
      <rect width="30" height="30"/>
    </clipPath>
  </defs>
  <g id="contacts" clip-path="url(#clip-contacts)">
    <g id="Caminho_3" data-name="Caminho 3" transform="translate(-698 -184.96)" fill="none">
      <path d="M701,212.648s.519-10,12.5-10,12.5,10,12.5,10Z" stroke="none"/>
      <path d="M 723.5084228515625 210.6477661132813 C 723.2821044921875 210.01806640625 722.9544067382813 209.3089294433594 722.4814453125 208.6101226806641 C 720.701904296875 205.9808959960938 717.6801147460938 204.6477661132813 713.5 204.6477661132813 C 709.3198852539063 204.6477661132813 706.298095703125 205.9808959960938 704.5185546875 208.6101226806641 C 704.0455932617188 209.3089294433594 703.7178955078125 210.01806640625 703.4915771484375 210.6477661132813 L 723.5084228515625 210.6477661132813 M 726 212.6477661132813 L 701 212.6477661132813 C 701 212.6477661132813 701.5185546875 202.6477661132813 713.5 202.6477661132813 C 725.4814453125 202.6477661132813 726 212.6477661132813 726 212.6477661132813 Z" stroke="none" fill="#707070"/>
    </g>
    <g id="Elipse_2" data-name="Elipse 2" transform="translate(9 3)" fill="none" stroke="#707070" stroke-width="2">
      <circle cx="6.5" cy="6.5" r="6.5" stroke="none"/>
      <circle cx="6.5" cy="6.5" r="5.5" fill="none"/>
    </g>
  </g>
</svg>
