<svg id="Line" enable-background="new 0 0 96 96" height="512" viewBox="0 0 96 96" width="512" xmlns="http://www.w3.org/2000/svg"><path d="m15 11v27h-11c-.552 0-1 .448-1 1v29.726c0 4.261 3.215 7.981 7.467 8.257 4.66.301 8.533-3.388 8.533-7.983v-34.035-24.965h-3c-.552 0-1 .448-1 1z" fill="#dfdddc"/><path d="m11 77c4.418 0 8-3.582 8-8v-65c0-.552.448-1 1-1h57c.552 0 1 .448 1 1v73z" fill="#e6e5e4"/><path d="m87 67h5c.552 0 1 .448 1 1v25h-6z" fill="#3ba1e3"/><path d="m87 93h-6v-40c0-.552.448-1 1-1h4c.552 0 1 .448 1 1z" fill="#6ebaed"/><path d="m81 93h-6v-31c0-.552.448-1 1-1h5z" fill="#3ba1e3"/><path d="m70 71h5v22h-6v-21c0-.552.448-1 1-1z" fill="#6ebaed"/><path d="m69 93h-6v-11c0-.552.448-1 1-1h5z" fill="#3ba1e3"/><path d="m63 93h-6v-6c0-.552.448-1 1-1h5z" fill="#6ebaed"/><path d="m64 16h-32c-.552 0-1-.448-1-1v-4c0-.552.448-1 1-1h32c.552 0 1 .448 1 1v4c0 .552-.448 1-1 1z" fill="#6ebaed"/><path d="m71 50h-45v-21c0-.552.448-1 1-1h43c.552 0 1 .448 1 1z" fill="#ef6662"/><path d="m53 66h17c.552 0 1-.448 1-1v-10c0-.552-.448-1-1-1h-17c-.552 0-1 .448-1 1v10c0 .552.448 1 1 1z" fill="#f2be07"/><path d="m11 73c-2.209 0-4-1.791-4-4v-33c0-.552.448-1 1-1h7v34c0 2.209-1.791 4-4 4z" fill="#c9c7c6"/><path d="m11 70c-.553 0-1-.448-1-1v-34c0-.552.447-1 1-1s1 .448 1 1v34c0 .552-.447 1-1 1z" fill="#9c9b9a"/><g fill="#316596"><path d="m93 11h-6c-.553 0-1 .448-1 1s.447 1 1 1h3.586l-31.086 31.086-11.293-11.293c-.391-.391-1.023-.391-1.414 0l-8.793 8.793-5.293-5.293c-.391-.391-1.023-.391-1.414 0l-6 6c-.391.391-.391 1.023 0 1.414s1.023.391 1.414 0l5.293-5.293 5.293 5.293c.391.391 1.023.391 1.414 0l8.793-8.793 11.293 11.293c.195.195.451.293.707.293s.512-.098.707-.293l31.793-31.793v3.586c0 .552.447 1 1 1s1-.448 1-1v-6c0-.552-.447-1-1-1z"/><path d="m93 94h-59c-.553 0-1-.448-1-1s.447-1 1-1h59c.553 0 1 .448 1 1s-.447 1-1 1z"/><circle cx="30" cy="93" r="1"/><circle cx="26" cy="93" r="1"/><circle cx="22" cy="93" r="1"/><path d="m33 56h-7c-.553 0-1-.448-1-1s.447-1 1-1h7c.553 0 1 .448 1 1s-.447 1-1 1z"/><path d="m47 56h-10c-.553 0-1-.448-1-1s.447-1 1-1h10c.553 0 1 .448 1 1s-.447 1-1 1z"/><path d="m38 61h-12c-.553 0-1-.448-1-1s.447-1 1-1h12c.553 0 1 .448 1 1s-.447 1-1 1z"/><path d="m47 61h-5c-.553 0-1-.448-1-1s.447-1 1-1h5c.553 0 1 .448 1 1s-.447 1-1 1z"/><path d="m41 23h-8c-.553 0-1-.448-1-1s.447-1 1-1h8c.553 0 1 .448 1 1s-.447 1-1 1z"/><path d="m53 23h-8c-.553 0-1-.448-1-1s.447-1 1-1h8c.553 0 1 .448 1 1s-.447 1-1 1z"/><path d="m28 66h-2c-.553 0-1-.448-1-1s.447-1 1-1h2c.553 0 1 .448 1 1s-.447 1-1 1z"/><path d="m40 66h-8c-.553 0-1-.448-1-1s.447-1 1-1h8c.553 0 1 .448 1 1s-.447 1-1 1z"/><path d="m54 71h-2c-.553 0-1-.448-1-1s.447-1 1-1h2c.553 0 1 .448 1 1s-.447 1-1 1z"/><path d="m65 71h-7c-.553 0-1-.448-1-1s.447-1 1-1h7c.553 0 1 .448 1 1s-.447 1-1 1z"/><path d="m47 66h-3c-.553 0-1-.448-1-1s.447-1 1-1h3c.553 0 1 .448 1 1s-.447 1-1 1z"/><path d="m34 71h-8c-.553 0-1-.448-1-1s.447-1 1-1h8c.553 0 1 .448 1 1s-.447 1-1 1z"/><path d="m47 71h-9c-.553 0-1-.448-1-1s.447-1 1-1h9c.553 0 1 .448 1 1s-.447 1-1 1z"/></g><path d="m62 63c-.256 0-.512-.098-.707-.293l-2.293-2.293-2.293 2.293c-.391.391-1.023.391-1.414 0s-.391-1.023 0-1.414l3-3c.391-.391 1.023-.391 1.414 0l2.293 2.293 3.293-3.293c.391-.391 1.023-.391 1.414 0s.391 1.023 0 1.414l-4 4c-.195.195-.451.293-.707.293z" fill="#e68f25"/><path d="m63 23h-6c-.553 0-1-.448-1-1s.447-1 1-1h6c.553 0 1 .448 1 1s-.447 1-1 1z" fill="#316596"/><path d="m71 49h-4v-3c0-.552-.447-1-1-1s-1 .448-1 1v3h-2v-1c0-.552-.447-1-1-1s-1 .448-1 1v1h-2c0-.552-.447-1-1-1s-1 .448-1 1h-2v-3c0-.552-.447-1-1-1s-1 .448-1 1v3h-2v-7c0-.552-.447-1-1-1s-1 .448-1 1v7h-2v-7c0-.552-.447-1-1-1s-1 .448-1 1v7h-2v-3c0-.552-.447-1-1-1s-1 .448-1 1v3h-2v-2c0-.552-.447-1-1-1s-1 .448-1 1v2h-2v-4c0-.552-.447-1-1-1s-1 .448-1 1v4h-2v-4c0-.552-.447-1-1-1s-1 .448-1 1v4h-3c-.553 0-1 .448-1 1s.447 1 1 1h45c.553 0 1-.448 1-1s-.447-1-1-1z" fill="#e05551"/></svg>