<svg xmlns="http://www.w3.org/2000/svg" xmlns:xlink="http://www.w3.org/1999/xlink" width="30" height="30" viewBox="0 0 30 30">
  <defs>
    <clipPath id="clip-path">
      <rect width="25" height="25" fill="none"/>
    </clipPath>
    <clipPath id="clip-message">
      <rect width="30" height="30"/>
    </clipPath>
  </defs>
  <g id="message" clip-path="url(#clip-message)">
    <g id="Componente_3_1" data-name="Componente 3 – 1" transform="translate(2 3)" clip-path="url(#clip-path)">
      <g id="União_1" data-name="União 1" transform="translate(685 153)" fill="none" stroke-linecap="round">
        <path d="M-666.25-134.944H-680a5,5,0,0,1-5-5V-148a5,5,0,0,1,5-5h15a5,5,0,0,1,5,5v20Z" stroke="none"/>
        <path d="M -661.9996948242188 -133.2117614746094 L -661.9996948242188 -136.3329010009766 L -661.9996948242188 -147.9996032714844 C -661.9996948242188 -149.6540222167969 -663.345703125 -151 -665.0001220703125 -151 L -680.0004272460938 -151 C -681.6543579101563 -151 -682.9999389648438 -149.6540222167969 -682.9999389648438 -147.9996032714844 L -682.9999389648438 -139.9446105957031 C -682.9999389648438 -138.2901763916016 -681.6543579101563 -136.9441986083984 -680.0004272460938 -136.9441986083984 L -666.2495727539063 -136.9441986083984 L -665.3588256835938 -136.9441986083984 L -664.7630004882813 -136.2821197509766 L -661.9996948242188 -133.2117614746094 M -659.9996948242188 -127.9998016357422 L -666.2495727539063 -134.9441986083984 L -680.0004272460938 -134.9441986083984 C -682.7615966796875 -134.9441986083984 -684.9999389648438 -137.1825103759766 -684.9999389648438 -139.9446105957031 L -684.9999389648438 -147.9996032714844 C -684.9999389648438 -150.7617034912109 -682.7615966796875 -153 -680.0004272460938 -153 L -665.0001220703125 -153 C -662.238037109375 -153 -659.9996948242188 -150.7617034912109 -659.9996948242188 -147.9996032714844 L -659.9996948242188 -136.3329010009766 L -659.9996948242188 -127.9998016357422 Z" stroke="none" fill="#777"/>
      </g>
      <line id="Linha_8" data-name="Linha 8" x2="13" transform="translate(6 7)" fill="none" stroke="#707070" stroke-linecap="round" stroke-width="2"/>
      <line id="Linha_9" data-name="Linha 9" x2="7" transform="translate(9 12)" fill="none" stroke="#707070" stroke-linecap="round" stroke-width="2"/>
    </g>
  </g>
</svg>
