<svg id="Layer_1" enable-background="new 0 0 512 512" height="512" viewBox="0 0 512 512" width="512" xmlns="http://www.w3.org/2000/svg"><path d="m464.767 512h-325.778c-5.692 0-10.305-4.614-10.305-10.305v-491.39c-.001-5.691 4.613-10.305 10.305-10.305h325.778c13.66 0 24.733 11.073 24.733 24.733v462.534c0 13.66-11.073 24.733-24.733 24.733z" fill="#26c6da"/><path d="m95.2 31.421h360.817v449.159h-360.817z" fill="#fbf2df"/><path d="m400.851 512h-311.351c-13.66 0-24.733-11.073-24.733-24.733v-462.534c0-13.66 11.073-24.733 24.733-24.733h311.351c13.66 0 24.733 11.073 24.733 24.733v462.534c0 13.66-11.073 24.733-24.733 24.733z" fill="#80deea"/><path d="m400.842 0h-30.927c13.665 0 24.742 11.069 24.742 24.724v462.551c0 13.655-11.077 24.724-24.742 24.724h30.927c13.665 0 24.742-11.069 24.742-24.724v-462.551c0-13.655-11.077-24.724-24.742-24.724z" fill="#4dd0e1"/><g fill="#fbf2df"><path d="m85.4 98.382h-42.296c-11.332 0-20.604-9.272-20.604-20.604 0-11.332 9.272-20.604 20.604-20.604h42.296c11.332 0 20.604 9.272 20.604 20.604-.001 11.333-9.272 20.604-20.604 20.604z"/><path d="m85.915 216.853h-42.296c-11.332 0-20.604-9.272-20.604-20.604 0-11.332 9.272-20.604 20.604-20.604h42.296c11.332 0 20.604 9.272 20.604 20.604 0 11.332-9.272 20.604-20.604 20.604z"/><path d="m86.431 335.324h-42.296c-11.332 0-20.604-9.272-20.604-20.604 0-11.332 9.272-20.604 20.604-20.604h42.296c11.332 0 20.604 9.272 20.604 20.604-.001 11.332-9.272 20.604-20.604 20.604z"/><path d="m86.946 453.795h-42.296c-11.332 0-20.604-9.272-20.604-20.604 0-11.332 9.272-20.604 20.604-20.604h42.296c11.332 0 20.604 9.272 20.604 20.604 0 11.332-9.272 20.604-20.604 20.604z"/></g><path d="m85.4 98.382h-42.296c-11.332 0-20.604-9.272-20.604-20.604 0-11.332 9.272-20.604 20.604-20.604h42.296c11.332 0 20.604 9.272 20.604 20.604-.001 11.333-9.272 20.604-20.604 20.604z" fill="#90a4ae"/><path d="m85.385 57.175h-30.927c11.34 0 20.618 9.272 20.618 20.604 0 11.332-9.278 20.604-20.618 20.604h30.927c11.34 0 20.618-9.272 20.618-20.604 0-11.332-9.278-20.604-20.618-20.604z" fill="#78909c"/><path d="m85.915 216.853h-42.296c-11.332 0-20.604-9.272-20.604-20.604 0-11.332 9.272-20.604 20.604-20.604h42.296c11.332 0 20.604 9.272 20.604 20.604 0 11.332-9.272 20.604-20.604 20.604z" fill="#90a4ae"/><path d="m85.901 175.646h-30.927c11.34 0 20.618 9.272 20.618 20.604 0 11.332-9.278 20.604-20.618 20.604h30.927c11.34 0 20.618-9.272 20.618-20.604 0-11.332-9.278-20.604-20.618-20.604z" fill="#78909c"/><path d="m86.431 335.324h-42.296c-11.332 0-20.604-9.272-20.604-20.604 0-11.332 9.272-20.604 20.604-20.604h42.296c11.332 0 20.604 9.272 20.604 20.604-.001 11.332-9.272 20.604-20.604 20.604z" fill="#90a4ae"/><path d="m86.416 294.117h-30.927c11.34 0 20.618 9.272 20.618 20.604 0 11.332-9.278 20.604-20.618 20.604h30.927c11.34 0 20.618-9.272 20.618-20.604 0-11.333-9.278-20.604-20.618-20.604z" fill="#78909c"/><path d="m86.946 453.795h-42.296c-11.332 0-20.604-9.272-20.604-20.604 0-11.332 9.272-20.604 20.604-20.604h42.296c11.332 0 20.604 9.272 20.604 20.604 0 11.332-9.272 20.604-20.604 20.604z" fill="#90a4ae"/><path d="m86.932 412.588h-30.928c11.34 0 20.618 9.272 20.618 20.604 0 11.332-9.278 20.604-20.618 20.604h30.927c11.34 0 20.618-9.272 20.618-20.604.001-11.333-9.277-20.604-20.617-20.604z" fill="#78909c"/><path d="m163.284 399.484h185.432c4.143 0 7.5-3.358 7.5-7.5s-3.357-7.5-7.5-7.5h-185.432c-4.142 0-7.5 3.358-7.5 7.5s3.358 7.5 7.5 7.5z" fill="#26c6da"/><path d="m348.716 417.45h-185.432c-4.142 0-7.5 3.358-7.5 7.5s3.358 7.5 7.5 7.5h185.432c4.143 0 7.5-3.358 7.5-7.5s-3.358-7.5-7.5-7.5z" fill="#26c6da"/><path d="m265.813 86.61c8.167 0 18.82 3.765 25.438 6.478 3.63 1.488 5.749 5.288 5.103 9.161l-7.529 45.146c-.744 4.464-4.887 7.536-9.371 6.948l-22.835-2.995c-23.918 1.246-29.986 31.63-29.986 50.04v31.441c0 18.41 6.068 48.794 29.986 50.04l22.837-2.991c4.483-.587 8.625 2.484 9.369 6.948l7.529 45.142c.646 3.873-1.473 7.673-5.103 9.162-6.618 2.714-17.271 6.478-25.438 6.478-17.233 0-73.768-18.694-73.768-114.063v-32.871c0-95.37 56.534-114.064 73.768-114.064z" fill="#ffd740"/></svg>