<svg id="brackets" xmlns="http://www.w3.org/2000/svg" width="32.005" height="32.005" viewBox="0 0 32.005 32.005">
  <circle id="Elipse_3" data-name="Elipse 3" cx="16.002" cy="16.002" r="16.002" fill="#3454d1"/>
  <path id="Caminho_28" data-name="Caminho 28" d="M151.116,120.6a16.013,16.013,0,0,1-13.447,13.455l-7.639-7.639.892-3.355-3.682-3.688,2.791-1.145.877-6.369,2.867-2.817,5.012,4.919-.008-.275L136.8,111.33l3.64-1.406Z" transform="translate(-119.286 -102.225)" fill="#2742ae"/>
  <g id="Grupo_3" data-name="Grupo 3" transform="translate(7.954 6.816)">
    <path id="Caminho_29" data-name="Caminho 29" d="M286.748,119.372a2.868,2.868,0,0,0-1.05.209,1.516,1.516,0,0,0-.61.581,2.879,2.879,0,0,0-.358,1.017,11.427,11.427,0,0,0-.076,1.589,13.647,13.647,0,0,1-.166,2.592,2.338,2.338,0,0,1-.616,1.181,3.125,3.125,0,0,1-1.318.7,7.086,7.086,0,0,1-1.836.173h-.506v-2.29a4.292,4.292,0,0,0,1.344-.13.923.923,0,0,0,.463-.372,1.674,1.674,0,0,0,.154-.828c0-.388.029-1.132.075-2.227a5.792,5.792,0,0,1,.258-1.595,3.233,3.233,0,0,1,.558-1.014,3.4,3.4,0,0,1,.894-.731,4.008,4.008,0,0,1-1.031-.9,3.8,3.8,0,0,1-.613-1.607,28.363,28.363,0,0,1-.143-2.942,2.527,2.527,0,0,0-.131-.955.787.787,0,0,0-.431-.365,4.5,4.5,0,0,0-1.4-.131v-2.289h.506a7.473,7.473,0,0,1,1.979.2,2.615,2.615,0,0,1,1.155.681,2.486,2.486,0,0,1,.636,1.187,10.587,10.587,0,0,1,.166,2.214,11.238,11.238,0,0,0,.144,2.283,1.984,1.984,0,0,0,.639,1.1,2.352,2.352,0,0,0,1.311.378v2.289Z" transform="translate(-270.651 -109.041)" fill="#f8f8f8"/>
    <path id="Caminho_30" data-name="Caminho 30" d="M127.24,119.373v-2.289a2.836,2.836,0,0,0,1.053-.212,1.532,1.532,0,0,0,.609-.577,2.651,2.651,0,0,0,.355-1.018,11.511,11.511,0,0,0,.076-1.6,13.071,13.071,0,0,1,.173-2.586,2.352,2.352,0,0,1,.619-1.177,3.106,3.106,0,0,1,1.307-.7,7.086,7.086,0,0,1,1.836-.173h.506v2.289a4.647,4.647,0,0,0-1.366.12.866.866,0,0,0-.447.362,1.773,1.773,0,0,0-.144.835c0,.4-.025,1.164-.078,2.283a5.817,5.817,0,0,1-.248,1.536,3.1,3.1,0,0,1-.512.968,4,4,0,0,1-.949.792,3.306,3.306,0,0,1,.926.76,3,3,0,0,1,.551,1.056,7.058,7.058,0,0,1,.251,1.667c.039,1.056.059,1.735.059,2.028a1.813,1.813,0,0,0,.154.88.945.945,0,0,0,.463.375,4.227,4.227,0,0,0,1.341.13v2.29h-.506a7.327,7.327,0,0,1-1.979-.205,2.669,2.669,0,0,1-1.158-.685,2.388,2.388,0,0,1-.636-1.181,10.856,10.856,0,0,1-.163-2.214,10.413,10.413,0,0,0-.154-2.283,2,2,0,0,0-.636-1.1A2.316,2.316,0,0,0,127.24,119.373Z" transform="translate(-127.24 -109.042)" fill="#f8f8f8"/>
  </g>
</svg>
