<svg id="home" xmlns="http://www.w3.org/2000/svg" width="32.104" height="32.104" viewBox="0 0 32.104 32.104">
  <circle id="Elipse_2" data-name="Elipse 2" cx="16.052" cy="16.052" r="16.052" fill="#ff3c38"/>
  <path id="Caminho_21" data-name="Caminho 21" d="M141.4,157.444l-8.339-8.339,13.382-15.366,10.181,10.181A16.056,16.056,0,0,1,141.4,157.444Z" transform="translate(-124.715 -125.353)" fill="#bb3a37"/>
  <path id="Caminho_22" data-name="Caminho 22" d="M133.058,127.056v10.125h14.851V127.056l-7.551-6.038Z" transform="translate(-124.715 -113.43)" fill="#f8f8f8"/>
  <g id="Grupo_1" data-name="Grupo 1" transform="translate(8.343 7.588)">
    <path id="Caminho_23" data-name="Caminho 23" d="M133.058,127.055v1.186l7.425-6,7.426,6v-1.188l-7.551-6.038Z" transform="translate(-133.058 -121.017)" fill="#eaeaed"/>
    <path id="Caminho_24" data-name="Caminho 24" d="M317,133.739h1.848V136.2H317Z" transform="translate(-305.468 -132.941)" fill="#eaeaed"/>
  </g>
  <path id="Caminho_25" data-name="Caminho 25" d="M206.613,246.964h0a3.012,3.012,0,0,1,3,3v5.264h-6v-5.264A3.011,3.011,0,0,1,206.613,246.964Z" transform="translate(-190.845 -231.479)" fill="#fa7876"/>
  <g id="Grupo_2" data-name="Grupo 2" transform="translate(6.156 5.857)">
    <path id="Caminho_26" data-name="Caminho 26" d="M218.8,251.727a3.011,3.011,0,0,1,1.617,2.661v5.264h-5.282v-4.836a3.143,3.143,0,0,1,3.135-3.135h0A3.137,3.137,0,0,1,218.8,251.727Z" transform="translate(-207.803 -241.757)" fill="#ff8c8a"/>
    <path id="Caminho_27" data-name="Caminho 27" d="M107.792,93.433l-.021-.018-9.591,7.751,1.17.946,8.442-6.821,8.442,6.821,1.171-.946-9.593-7.751Z" transform="translate(-98.18 -93.415)" fill="#ff8c8a"/>
  </g>
</svg>
