<svg id="user" xmlns="http://www.w3.org/2000/svg" width="32.041" height="32.041" viewBox="0 0 32.041 32.041">
  <path id="Caminho_20" data-name="Caminho 20" d="M16.021,0A16.021,16.021,0,1,1,0,16.021,16.021,16.021,0,0,1,16.021,0Z" transform="translate(0 0)" fill="#ff8c42"/>
  <path id="Caminho_17" data-name="Caminho 17" d="M142.323,139.367a16.026,16.026,0,0,1-17.25,11.384l-6.737-6.737,11.073.039-.141-8.34-.289-1.109.731-7.852Z" transform="translate(-110.931 -118.821)" fill="#d97738"/>
  <path id="Caminho_18" data-name="Caminho 18" d="M122.548,120.442h.308l1.8-.984.294-1.148a5.123,5.123,0,0,1-1.947-3.833V113.2a3.879,3.879,0,0,1,3.944-3.786h0A3.88,3.88,0,0,1,130.9,113.2v1.279a5.121,5.121,0,0,1-1.948,3.832l.294,1.149h.025l1.754.984h.333a4.145,4.145,0,0,1,4.213,4.042v3.274H118.336v-3.274A4.141,4.141,0,0,1,122.548,120.442Z" transform="translate(-110.931 -102.565)" fill="#f9f9f9"/>
  <path id="Caminho_19" data-name="Caminho 19" d="M230.711,109.732a4.051,4.051,0,0,1,1.583-.32h0a3.88,3.88,0,0,1,3.945,3.786v1.279a5.121,5.121,0,0,1-1.948,3.832l.294,1.149h.025l1.754.984h.333a4.145,4.145,0,0,1,4.213,4.042v3.274h-.788v-3.032a4.145,4.145,0,0,0-4.213-4.042h-.333l-1.754-.984H233.8l-.294-1.149a5.12,5.12,0,0,0,1.947-3.832v-1.279a3.879,3.879,0,0,0-3.944-3.786h0A4.065,4.065,0,0,0,230.711,109.732Z" transform="translate(-216.273 -102.565)" fill="#eaeaed"/>
</svg>
